<svg xmlns="http://www.w3.org/2000/svg" width="32" height="32" viewBox="0 0 32 32" fill="none">
  <!-- Background Circle -->
  <circle cx="16" cy="16" r="15" fill="url(#gradient)" />
  
  <!-- Letter P -->
  <path d="M10.5 9.5C10.5 9 10.9 8.5 11.5 8.5H16C17.9 8.5 19.5 10.1 19.5 12C19.5 13.9 17.9 15.5 16 15.5H12.5V21C12.5 21.6 12 22 11.5 22C10.9 22 10.5 21.6 10.5 21V9.5Z" fill="white"/>
  
  <!-- Hollow out the P -->
  <path d="M12.5 10.5V13.5H16C16.8 13.5 17.5 12.8 17.5 12C17.5 11.2 16.8 10.5 16 10.5H12.5Z" fill="url(#gradient)"/>
  
  <!-- Data Visualization Elements -->
  <path d="M21 11L24 11" stroke="white" stroke-width="1" stroke-linecap="round"/>
  <path d="M21 13L24 13" stroke="white" stroke-width="1" stroke-linecap="round"/>
  <path d="M21 15L24 15" stroke="white" stroke-width="1" stroke-linecap="round"/>
  <path d="M21 17L24 17" stroke="white" stroke-width="1" stroke-linecap="round"/>
  <path d="M21 19L24 19" stroke="white" stroke-width="1" stroke-linecap="round"/>
  
  <!-- Gradient Definition -->
  <defs>
    <linearGradient id="gradient" x1="0" y1="0" x2="32" y2="32" gradientUnits="userSpaceOnUse">
      <stop offset="0%" stop-color="#4F46E5"/>
      <stop offset="100%" stop-color="#0EA5E9"/>
    </linearGradient>
  </defs>
</svg>
